<svg width="40" height="40" viewBox="0 0 40 40" fill="none" xmlns="http://www.w3.org/2000/svg">
<path d="M6.66536 33.3333C5.7487 33.3333 4.96398 33.0069 4.3112 32.3541C3.65842 31.7013 3.33203 30.9166 3.33203 30V9.99996C3.33203 9.08329 3.65842 8.29857 4.3112 7.64579C4.96398 6.99301 5.7487 6.66663 6.66536 6.66663H16.6654L19.9987 9.99996H33.332C34.2487 9.99996 35.0334 10.3263 35.6862 10.9791C36.339 11.6319 36.6654 12.4166 36.6654 13.3333V30C36.6654 30.9166 36.339 31.7013 35.6862 32.3541C35.0334 33.0069 34.2487 33.3333 33.332 33.3333H6.66536ZM6.66536 30H33.332V13.3333H18.6237L15.2904 9.99996H6.66536V30Z" fill="#39A900"/>
</svg>
