<svg width="46" height="52" viewBox="0 0 46 52" fill="none" xmlns="http://www.w3.org/2000/svg">
<path d="M23 52C26.6266 52 29.5683 49.0902 29.5683 45.5H16.4317C16.4317 49.0902 19.3734 52 23 52ZM45.1159 36.7951C43.1321 34.6866 39.4203 31.5148 39.4203 21.125C39.4203 13.2336 33.8264 6.91641 26.2836 5.36656V3.25C26.2836 1.45539 24.8133 0 23 0C21.1867 0 19.7163 1.45539 19.7163 3.25V5.36656C12.1736 6.91641 6.57969 13.2336 6.57969 21.125C6.57969 31.5148 2.86787 34.6866 0.884131 36.7951C0.268061 37.4502 -0.00506292 38.2332 7.09905e-05 39C0.0113656 40.6656 1.33283 42.25 3.29604 42.25H42.704C44.6672 42.25 45.9897 40.6656 45.9999 39C46.0051 38.2332 45.7319 37.4491 45.1159 36.7951Z" fill="#39A900"/>
</svg>
