<svg width="45" height="39" viewBox="0 0 45 39" fill="none" xmlns="http://www.w3.org/2000/svg">
<path d="M1.60714 7.16327H43.3929C44.2805 7.16327 45 6.45062 45 5.57143V1.59184C45 0.712645 44.2805 0 43.3929 0H1.60714C0.719498 0 0 0.712645 0 1.59184V5.57143C0 6.45062 0.719498 7.16327 1.60714 7.16327ZM1.60714 23.0816H43.3929C44.2805 23.0816 45 22.369 45 21.4898V17.5102C45 16.631 44.2805 15.9184 43.3929 15.9184H1.60714C0.719498 15.9184 0 16.631 0 17.5102V21.4898C0 22.369 0.719498 23.0816 1.60714 23.0816ZM1.60714 39H43.3929C44.2805 39 45 38.2874 45 37.4082V33.4286C45 32.5494 44.2805 31.8367 43.3929 31.8367H1.60714C0.719498 31.8367 0 32.5494 0 33.4286V37.4082C0 38.2874 0.719498 39 1.60714 39Z" fill="#39A900"/>
</svg>
