<svg width="40" height="40" viewBox="0 0 40 40" fill="none" xmlns="http://www.w3.org/2000/svg">
<path d="M1.07143 15H38.9286C39.5179 15 40 15.4219 40 15.9375V36.25C40 38.3203 38.0804 40 35.7143 40H4.28571C1.91964 40 0 38.3203 0 36.25V15.9375C0 15.4219 0.482143 15 1.07143 15ZM40 11.5625V8.75C40 6.67969 38.0804 5 35.7143 5H31.4286V0.9375C31.4286 0.421875 30.9464 0 30.3571 0H26.7857C26.1964 0 25.7143 0.421875 25.7143 0.9375V5H14.2857V0.9375C14.2857 0.421875 13.8036 0 13.2143 0H9.64286C9.05357 0 8.57143 0.421875 8.57143 0.9375V5H4.28571C1.91964 5 0 6.67969 0 8.75V11.5625C0 12.0781 0.482143 12.5 1.07143 12.5H38.9286C39.5179 12.5 40 12.0781 40 11.5625Z" fill="#39A900"/>
</svg>
