<svg width="40" height="40" viewBox="0 0 40 40" fill="none" xmlns="http://www.w3.org/2000/svg">
<path d="M0 33.3333V28.7083C0 27.7639 0.236111 26.8889 0.708333 26.0833C1.18056 25.2777 1.83333 24.6666 2.66667 24.25C3.05556 24.0555 3.43056 23.875 3.79167 23.7083C4.18056 23.5416 4.58333 23.3889 5 23.25V33.3333H0ZM6.66667 21.6666C5.27778 21.6666 4.09722 21.1805 3.125 20.2083C2.15278 19.2361 1.66667 18.0555 1.66667 16.6666C1.66667 15.2777 2.15278 14.0972 3.125 13.125C4.09722 12.1527 5.27778 11.6666 6.66667 11.6666C8.05556 11.6666 9.23611 12.1527 10.2083 13.125C11.1806 14.0972 11.6667 15.2777 11.6667 16.6666C11.6667 18.0555 11.1806 19.2361 10.2083 20.2083C9.23611 21.1805 8.05556 21.6666 6.66667 21.6666ZM6.66667 18.3333C7.13889 18.3333 7.52778 18.1805 7.83333 17.875C8.16667 17.5416 8.33333 17.1388 8.33333 16.6666C8.33333 16.1944 8.16667 15.8055 7.83333 15.5C7.52778 15.1666 7.13889 15 6.66667 15C6.19444 15 5.79167 15.1666 5.45833 15.5C5.15278 15.8055 5 16.1944 5 16.6666C5 17.1388 5.15278 17.5416 5.45833 17.875C5.79167 18.1805 6.19444 18.3333 6.66667 18.3333ZM6.66667 33.3333V28.6666C6.66667 27.7222 6.90278 26.8611 7.375 26.0833C7.875 25.2777 8.52778 24.6666 9.33333 24.25C11.0556 23.3888 12.8056 22.75 14.5833 22.3333C16.3611 21.8889 18.1667 21.6666 20 21.6666C21.8333 21.6666 23.6389 21.8889 25.4167 22.3333C27.1944 22.75 28.9444 23.3888 30.6667 24.25C31.4722 24.6666 32.1111 25.2777 32.5833 26.0833C33.0833 26.8611 33.3333 27.7222 33.3333 28.6666V33.3333H6.66667ZM10 30H30V28.6666C30 28.3611 29.9167 28.0833 29.75 27.8333C29.6111 27.5833 29.4167 27.3888 29.1667 27.25C27.6667 26.5 26.1528 25.9444 24.625 25.5833C23.0972 25.1944 21.5556 25 20 25C18.4444 25 16.9028 25.1944 15.375 25.5833C13.8472 25.9444 12.3333 26.5 10.8333 27.25C10.5833 27.3888 10.375 27.5833 10.2083 27.8333C10.0694 28.0833 10 28.3611 10 28.6666V30ZM20 20C18.1667 20 16.5972 19.3472 15.2917 18.0416C13.9861 16.7361 13.3333 15.1666 13.3333 13.3333C13.3333 11.5 13.9861 9.93052 15.2917 8.62496C16.5972 7.3194 18.1667 6.66663 20 6.66663C21.8333 6.66663 23.4028 7.3194 24.7083 8.62496C26.0139 9.93052 26.6667 11.5 26.6667 13.3333C26.6667 15.1666 26.0139 16.7361 24.7083 18.0416C23.4028 19.3472 21.8333 20 20 20ZM20 16.6666C20.9167 16.6666 21.6944 16.3472 22.3333 15.7083C23 15.0416 23.3333 14.25 23.3333 13.3333C23.3333 12.4166 23 11.6388 22.3333 11C21.6944 10.3333 20.9167 9.99996 20 9.99996C19.0833 9.99996 18.2917 10.3333 17.625 11C16.9861 11.6388 16.6667 12.4166 16.6667 13.3333C16.6667 14.25 16.9861 15.0416 17.625 15.7083C18.2917 16.3472 19.0833 16.6666 20 16.6666ZM33.3333 21.6666C31.9444 21.6666 30.7639 21.1805 29.7917 20.2083C28.8194 19.2361 28.3333 18.0555 28.3333 16.6666C28.3333 15.2777 28.8194 14.0972 29.7917 13.125C30.7639 12.1527 31.9444 11.6666 33.3333 11.6666C34.7222 11.6666 35.9028 12.1527 36.875 13.125C37.8472 14.0972 38.3333 15.2777 38.3333 16.6666C38.3333 18.0555 37.8472 19.2361 36.875 20.2083C35.9028 21.1805 34.7222 21.6666 33.3333 21.6666ZM33.3333 18.3333C33.8056 18.3333 34.1944 18.1805 34.5 17.875C34.8333 17.5416 35 17.1388 35 16.6666C35 16.1944 34.8333 15.8055 34.5 15.5C34.1944 15.1666 33.8056 15 33.3333 15C32.8611 15 32.4583 15.1666 32.125 15.5C31.8194 15.8055 31.6667 16.1944 31.6667 16.6666C31.6667 17.1388 31.8194 17.5416 32.125 17.875C32.4583 18.1805 32.8611 18.3333 33.3333 18.3333ZM35 33.3333V23.25C35.4167 23.3889 35.8056 23.5416 36.1667 23.7083C36.5556 23.875 36.9444 24.0555 37.3333 24.25C38.1667 24.6666 38.8194 25.2777 39.2917 26.0833C39.7639 26.8889 40 27.7639 40 28.7083V33.3333H35Z" fill="#39A900"/>
</svg>
